<svg xmlns="http://www.w3.org/2000/svg" xmlns:xlink="http://www.w3.org/1999/xlink" viewBox="0 0 234.8 234.62"><defs><style>.cls-1{mask:url(#mask);filter:url(#luminosity-noclip-2);}.cls-2{mix-blend-mode:multiply;fill:url(#linear-gradient);}.cls-3{mask:url(#mask-2);}.cls-4{fill:url(#linear-gradient-2);}.cls-5{fill:#191919;}.cls-6{fill:url(#linear-gradient-3);}.cls-7{fill:url(#linear-gradient-4);}.cls-8{fill:url(#linear-gradient-5);}.cls-9{fill:url(#linear-gradient-6);}.cls-10{fill:url(#linear-gradient-7);}.cls-11{fill:url(#linear-gradient-8);}.cls-12{fill:url(#linear-gradient-9);}.cls-13{fill:url(#linear-gradient-10);}.cls-14{fill:url(#linear-gradient-11);}.cls-15{fill:url(#linear-gradient-12);}.cls-16{fill:url(#linear-gradient-13);}.cls-17{filter:url(#luminosity-noclip);}</style><filter id="luminosity-noclip" x="13.79" y="-8310.7" width="209.48" height="32766" filterUnits="userSpaceOnUse" color-interpolation-filters="sRGB"><feFlood flood-color="#fff" result="bg"/><feBlend in="SourceGraphic" in2="bg"/></filter><mask id="mask" x="13.79" y="-8310.7" width="209.48" height="32766" maskUnits="userSpaceOnUse"><g class="cls-17"/></mask><linearGradient id="linear-gradient" x1="-645.93" y1="1509.46" x2="-750.68" y2="1690.88" gradientTransform="translate(1718.7 814.9) rotate(90)" gradientUnits="userSpaceOnUse"><stop offset="0" stop-color="#fff"/><stop offset="0.54"/><stop offset="1" stop-color="#f1f1f1"/></linearGradient><filter id="luminosity-noclip-2" x="13.79" y="11.93" width="209.48" height="209.32" filterUnits="userSpaceOnUse" color-interpolation-filters="sRGB"><feFlood flood-color="#fff" result="bg"/><feBlend in="SourceGraphic" in2="bg"/></filter><mask id="mask-2" x="13.79" y="11.93" width="209.48" height="209.32" maskUnits="userSpaceOnUse"><g class="cls-1"><path class="cls-2" d="M13.79,116.59A104.78,104.78,0,0,1,215,75.85,104.76,104.76,0,0,1,22,157.33,104,104,0,0,1,13.79,116.59Zm208.6,0A103.87,103.87,0,0,0,45.09,43.21,103.82,103.82,0,0,0,192,190,103,103,0,0,0,222.39,116.59Z"/></g></mask><linearGradient id="linear-gradient-2" x1="-645.93" y1="1509.46" x2="-750.68" y2="1690.88" gradientTransform="translate(1718.7 814.9) rotate(90)" gradientUnits="userSpaceOnUse"><stop offset="0" stop-color="#d7b676"/><stop offset="0.54"/><stop offset="1" stop-color="#c5a76e"/></linearGradient><linearGradient id="linear-gradient-3" x1="-598.79" y1="1601.09" x2="-589.38" y2="1601.09" gradientTransform="translate(1718.7 814.9) rotate(90)" gradientUnits="userSpaceOnUse"><stop offset="0" stop-color="#ab8d60"/><stop offset="0.07" stop-color="#b29466"/><stop offset="0.51" stop-color="#dbc087"/><stop offset="1" stop-color="#ab8d60"/></linearGradient><linearGradient id="linear-gradient-4" x1="-806.79" y1="1601.09" x2="-798.26" y2="1601.09" xlink:href="#linear-gradient-3"/><linearGradient id="linear-gradient-5" x1="-700.85" y1="1707.7" x2="-694.4" y2="1701.25" xlink:href="#linear-gradient-3"/><linearGradient id="linear-gradient-6" x1="1597.96" y1="424.8" x2="1604.41" y2="418.35" gradientTransform="translate(-199.04 1718.46) rotate(-90)" xlink:href="#linear-gradient-3"/><linearGradient id="linear-gradient-7" x1="-628.23" y1="1677.57" x2="-621.78" y2="1671.12" xlink:href="#linear-gradient-3"/><linearGradient id="linear-gradient-8" x1="1671.03" y1="1678.03" x2="1677.49" y2="1671.58" gradientTransform="matrix(0, -1, -1, 0, 1718.7, 1718.46)" xlink:href="#linear-gradient-3"/><linearGradient id="linear-gradient-9" x1="2020.32" y1="645.71" x2="2026.77" y2="639.26" gradientTransform="translate(-450.88 2214.83) rotate(-90)" xlink:href="#linear-gradient-3"/><linearGradient id="linear-gradient-10" x1="127.41" y1="1673.11" x2="133.87" y2="1666.66" gradientTransform="translate(1861.48 -87.59) rotate(90)" xlink:href="#linear-gradient-3"/><linearGradient id="linear-gradient-11" x1="-814.9" y1="1701.22" x2="-779.96" y2="1701.22" xlink:href="#linear-gradient-3"/><linearGradient id="linear-gradient-12" x1="-809.13" y1="1701.11" x2="-785.68" y2="1701.11" xlink:href="#linear-gradient-3"/><linearGradient id="linear-gradient-13" x1="-615.35" y1="1501.45" x2="-580.28" y2="1501.45" xlink:href="#linear-gradient-3"/></defs><g id="Layer_2" data-name="Layer 2"><g id="Object"><g class="cls-3"><path class="cls-4" d="M13.79,116.59A104.78,104.78,0,0,1,215,75.85,104.76,104.76,0,0,1,22,157.33,104,104,0,0,1,13.79,116.59Zm208.6,0A103.87,103.87,0,0,0,45.09,43.21,103.82,103.82,0,0,0,192,190,103,103,0,0,0,222.39,116.59Z"/></g><path class="cls-5" d="M118.27,225a4.27,4.27,0,1,1,3.55-4.87A4.26,4.26,0,0,1,118.27,225Z"/><path class="cls-6" d="M112.9,220.8a4.7,4.7,0,1,1,5.44,4.66,4.72,4.72,0,0,1-5.39-3.92A4.68,4.68,0,0,1,112.9,220.8Zm8.54,0a4.3,4.3,0,0,0,0-.61,3.83,3.83,0,1,0-3.19,4.38h0a3.79,3.79,0,0,0,2.5-1.53A3.74,3.74,0,0,0,121.44,220.82Z"/><path class="cls-7" d="M118.27,16.59a4.27,4.27,0,1,1,3.55-4.88A4.27,4.27,0,0,1,118.27,16.59Z"/><path class="cls-5" d="M11.89,120.49a4,4,0,0,1-1.59-2.6,4.3,4.3,0,0,1,0-.62h8a4,4,0,0,1-3.36,3.92A4,4,0,0,1,11.89,120.49Z"/><path class="cls-8" d="M14.94,121.78a4.57,4.57,0,0,0,3-1.82,4.62,4.62,0,0,0,.82-3.4,4.56,4.56,0,0,0-9.07.7,4.36,4.36,0,0,0,.05.72,4.56,4.56,0,0,0,5.22,3.8Zm-3-1.29a4,4,0,0,1-1.59-2.6,4.3,4.3,0,0,1,0-.62h8a4,4,0,0,1-3.36,3.92A4,4,0,0,1,11.89,120.49Z"/><path class="cls-5" d="M224.88,114.06a4,4,0,0,1,1.59,2.6,4.17,4.17,0,0,1,0,.61h-7.95a4,4,0,0,1,6.32-3.2Z"/><path class="cls-9" d="M221.83,112.77a4.56,4.56,0,1,0,5.27,4.51,4.36,4.36,0,0,0,0-.72,4.57,4.57,0,0,0-5.22-3.79Zm3,1.29a4,4,0,0,1,1.59,2.6,4.17,4.17,0,0,1,0,.61h-7.95a4,4,0,0,1,6.32-3.2Z"/><path class="cls-5" d="M40.84,191.74a4,4,0,1,1,7.5-1.86,4,4,0,0,1-.47,1.86,4.47,4.47,0,0,0-1-1,4.29,4.29,0,0,0-6,.94Z"/><path class="cls-10" d="M45.06,194.39a4.49,4.49,0,0,0,3-1.82c.09-.12.18-.26.27-.4a4.58,4.58,0,1,0-6.64,1.4,4.5,4.5,0,0,0,2.68.88A4.25,4.25,0,0,0,45.06,194.39Zm-3.92-6.84a4,4,0,0,1,7.2,2.33,4,4,0,0,1-.47,1.86,4.47,4.47,0,0,0-1-1,4.29,4.29,0,0,0-6,.94l-.06.1A4,4,0,0,1,41.14,187.55Z"/><path class="cls-5" d="M40.38,42.35a4,4,0,1,0,7.5,1.86,3.89,3.89,0,0,0-.47-1.86,4.1,4.1,0,0,1-1,1,4.29,4.29,0,0,1-6-.94Z"/><path class="cls-11" d="M43.89,39.64a4.55,4.55,0,0,0-3.68,7.24,4.45,4.45,0,0,0,3,1.82,4.56,4.56,0,0,0,4.66-6.78c-.09-.14-.17-.28-.26-.4a4.53,4.53,0,0,0-3-1.82A4.37,4.37,0,0,0,43.89,39.64Zm-3.51,2.71.06.1a4.29,4.29,0,0,0,6,.94,4.1,4.1,0,0,0,1-1,3.89,3.89,0,0,1,.47,1.86,4,4,0,1,1-7.5-1.86Z"/><path class="cls-5" d="M195.12,189.43a4,4,0,1,1-7.5,1.86,3.89,3.89,0,0,1,.47-1.86,4.1,4.1,0,0,0,1,1,4.29,4.29,0,0,0,6-.94Z"/><path class="cls-12" d="M190.89,186.78a4.53,4.53,0,0,0-3,1.82c-.09.12-.17.26-.26.4a4.56,4.56,0,0,0,4.66,6.78,4.45,4.45,0,0,0,3-1.82,4.53,4.53,0,0,0,.88-2.68,4.56,4.56,0,0,0-4.56-4.56A4.37,4.37,0,0,0,190.89,186.78Zm3.93,6.84a4,4,0,0,1-7.2-2.33,3.89,3.89,0,0,1,.47-1.86,4.1,4.1,0,0,0,1,1,4.29,4.29,0,0,0,6-.94l.06-.1A4,4,0,0,1,194.82,193.62Z"/><path class="cls-5" d="M188.08,44.9a4,4,0,0,1,5.86-5.06,3.93,3.93,0,0,1,1.64,3.2,4,4,0,0,1-.46,1.86,4.32,4.32,0,0,0-1-1,4.28,4.28,0,0,0-6,.94Z"/><path class="cls-13" d="M192.31,47.55a4.53,4.53,0,0,0,3-1.82,3.94,3.94,0,0,0,.26-.4,4.56,4.56,0,1,0-7.9,0,4.43,4.43,0,0,0,1.26,1.4,4.51,4.51,0,0,0,2.69.88A4.34,4.34,0,0,0,192.31,47.55Zm-3.93-6.84a4,4,0,0,1,5.56-.87,3.93,3.93,0,0,1,1.64,3.2,4,4,0,0,1-.46,1.86,4.32,4.32,0,0,0-1-1,4.28,4.28,0,0,0-6,.94l-.07.1A4,4,0,0,1,188.38,40.71Z"/><path class="cls-5" d="M14.9,20.13l2.77,12.74L20.46,20l12.43-2.7L20.4,14.62c-.82-3.78-2.73-12.55-2.73-12.55L15,14.54,2.07,17.34Z"/><path class="cls-14" d="M0,17.34l14.59-3.17L17.67,0l3.1,14.26L35,17.34,20.83,20.41,17.67,34.93,14.53,20.49ZM17.67,4.13,15.33,14.91,4.13,17.34l11.14,2.42,2.4,11,2.42-11.13,10.74-2.33L20,15Z"/><path class="cls-5" d="M14,17.52,7.44,27.75l10.31-6.62,10,6.41-6.44-10L27.77,7.43l-10,6.44L7.4,7.22Z"/><path class="cls-15" d="M5.94,5.76l11.81,7.59L29.23,6,21.81,17.52,29.19,29,17.75,21.65,6,29.21,13.5,17.52ZM26.31,8.89l-8.56,5.5L8.86,8.68l5.68,8.84L8.9,26.29l8.85-5.68,8.52,5.47-5.51-8.56Z"/><path class="cls-5" d="M214.91,221.33l2.34,11.15,2.34-11.15,5.52,3.6-3.6-5.51,11.15-2.34-11.15-2.34,3.6-5.52-5.52,3.6-2.34-11.14s-1.41,6.69-2.34,11.14l-5.52-3.6,3.6,5.52-11.15,2.34L213,219.42l-3.6,5.51Z"/><path class="cls-16" d="M199.7,217.08l12.57-2.64-4.39-6.73,6.73,4.4,2.64-12.57,2.64,12.57,6.73-4.4-4.39,6.73,12.57,2.64-12.57,2.64,4.39,6.72-6.73-4.39-2.64,12.57-2.64-12.57-6.73,4.39,4.39-6.72Zm14-2-9.74,2,9.74,2-2.81,4.3,4.31-2.8,2,9.72,2.05-9.72,4.3,2.8-2.81-4.3,9.74-2-9.74-2,2.81-4.31-4.3,2.81-2.05-9.73-2,9.73-4.31-2.81Z"/></g></g></svg>