<svg xmlns="http://www.w3.org/2000/svg" viewBox="0 0 298.32 298.32"><defs><style>.cls-1{fill:none;stroke:#d7be8a;stroke-linecap:round;stroke-linejoin:round;stroke-width:2.5px;}</style></defs><g id="Layer_2" data-name="Layer 2"><g id="Graphic_elements" data-name="Graphic elements"><g id="Graphic_elements-2" data-name="Graphic elements"><circle class="cls-1" cx="149.16" cy="149.16" r="68.42" transform="translate(-16.85 279.31) rotate(-83.1)"/><path class="cls-1" d="M149.16,93.45a56.18,56.18,0,0,0-8.56.65c19.59,4.12,34.59,27.2,34.59,55.06s-15,50.94-34.59,55.06a55.72,55.72,0,1,0,8.56-110.77Z"/><line class="cls-1" x1="149.16" y1="62.96" x2="149.16" y2="1.25"/><line class="cls-1" x1="149.16" y1="297.07" x2="149.16" y2="235.36"/><line class="cls-1" x1="235.36" y1="149.16" x2="297.07" y2="149.16"/><line class="cls-1" x1="1.25" y1="149.16" x2="62.96" y2="149.16"/><line class="cls-1" x1="210.11" y1="88.21" x2="253.75" y2="44.57"/><line class="cls-1" x1="44.57" y1="253.75" x2="88.21" y2="210.11"/><line class="cls-1" x1="210.11" y1="210.11" x2="253.75" y2="253.75"/><line class="cls-1" x1="44.57" y1="44.57" x2="88.21" y2="88.21"/><line class="cls-1" x1="181.34" y1="69.19" x2="204.37" y2="11.94"/><line class="cls-1" x1="93.94" y1="286.38" x2="116.98" y2="229.12"/><line class="cls-1" x1="229.12" y1="181.34" x2="286.38" y2="204.37"/><line class="cls-1" x1="11.94" y1="93.94" x2="69.19" y2="116.98"/><line class="cls-1" x1="228.46" y1="115.37" x2="285.23" y2="91.18"/><line class="cls-1" x1="13.09" y1="207.14" x2="69.86" y2="182.95"/><line class="cls-1" x1="182.95" y1="228.46" x2="207.14" y2="285.23"/><line class="cls-1" x1="91.18" y1="13.09" x2="115.37" y2="69.86"/><line class="cls-1" x1="219.54" y1="99.39" x2="245.92" y2="80.74"/><line class="cls-1" x1="52.4" y1="217.58" x2="78.78" y2="198.92"/><line class="cls-1" x1="198.92" y1="219.54" x2="217.58" y2="245.92"/><line class="cls-1" x1="80.74" y1="52.4" x2="99.39" y2="78.78"/><line class="cls-1" x1="233.56" y1="131.65" x2="265.2" y2="125.09"/><line class="cls-1" x1="33.12" y1="173.23" x2="64.76" y2="166.66"/><line class="cls-1" x1="166.66" y1="233.56" x2="173.23" y2="265.2"/><line class="cls-1" x1="125.09" y1="33.12" x2="131.65" y2="64.76"/><line class="cls-1" x1="234.11" y1="163.74" x2="265.96" y2="169.2"/><line class="cls-1" x1="32.36" y1="129.12" x2="64.2" y2="134.58"/><line class="cls-1" x1="134.58" y1="234.11" x2="129.12" y2="265.96"/><line class="cls-1" x1="169.2" y1="32.36" x2="163.74" y2="64.2"/><line class="cls-1" x1="196.29" y1="76.99" x2="213.96" y2="49.94"/><line class="cls-1" x1="84.36" y1="248.38" x2="102.03" y2="221.33"/><line class="cls-1" x1="221.33" y1="196.29" x2="248.38" y2="213.96"/><line class="cls-1" x1="49.94" y1="84.36" x2="76.99" y2="102.03"/></g></g></g></svg>